<svg xmlns="http://www.w3.org/2000/svg" viewBox="0 0 512 512" width="512" height="512">
  <g transform="translate(256, 250)">
    <path d="M0-164 L128-104 L128,48 L0,164 L-128,48 L-128-104 Z" fill="#1A1F2E" stroke="#2A3040" stroke-width="2"/>
    <path d="M4-148 L128-92 L128,56 L4,168" fill="#232B3E" stroke="none"/>
    <path d="M-4-148 L-128-92 L-128,56 L-4,168" fill="#161B28" stroke="none"/>
    <path d="M0-136 L104-84 L104,36 L0,136 L-104,36 L-104-84 Z" fill="none" stroke="#3A4560" stroke-width="2.4"/>
    <path d="M0-112 L84-68 L84,24 L0,112 L-84,24 L-84-68 Z" fill="none" stroke="#3A4560" stroke-width="1.2" opacity="0.4"/>
    <line x1="-72" y1="-12" x2="-20" y2="-12" stroke="#8BAAB8" stroke-width="7" stroke-linecap="round"/>
    <line x1="-20" y1="-12" x2="0" y2="-68" stroke="#A0C4D4" stroke-width="7" stroke-linecap="round"/>
    <line x1="0" y1="-68" x2="20" y2="-12" stroke="#A0C4D4" stroke-width="7" stroke-linecap="round"/>
    <line x1="20" y1="-12" x2="72" y2="-12" stroke="#8BAAB8" stroke-width="7" stroke-linecap="round"/>
    <circle cx="-72" cy="-12" r="8" fill="#8BAAB8"/>
    <circle cx="72" cy="-12" r="8" fill="#8BAAB8"/>
    <line x1="-6" y1="60" x2="-6" y2="96" stroke="#8BAAB8" stroke-width="8" stroke-linecap="round"/>
    <line x1="18" y1="60" x2="18" y2="96" stroke="#8BAAB8" stroke-width="8" stroke-linecap="round"/>
    <path d="M-128-104 L0-164 L128-104" fill="none" stroke="#4A5670" stroke-width="4" stroke-linejoin="round"/>
    <line x1="128" y1="-104" x2="128" y2="48" stroke="#4A5670" stroke-width="3"/>
    <line x1="-128" y1="-104" x2="-128" y2="48" stroke="#2A3040" stroke-width="2"/>
  </g>
</svg>
